<svg width="24" height="24" viewBox="0 0 24 24" fill="none" xmlns="http://www.w3.org/2000/svg">
<path d="M13.1818 18.6713L12.3688 19.4843C12.0245 19.8285 11.4679 19.8285 11.1273 19.4843L4.00818 12.3688C3.66394 12.0245 3.66394 11.4679 4.00818 11.1273L11.1273 4.00818C11.4716 3.66394 12.0282 3.66394 12.3688 4.00818L13.1818 4.82117C13.5297 5.16907 13.5223 5.73669 13.1671 6.07727L8.75427 10.2814H19.2792C19.7662 10.2814 20.1581 10.6732 20.1581 11.1603V12.3322C20.1581 12.8192 19.7662 13.2111 19.2792 13.2111H8.75427L13.1671 17.4152C13.526 17.7557 13.5333 18.3234 13.1818 18.6713Z" fill="black"/>
<rect x="0.5" y="0.5" width="23" height="23" stroke="black"/>
</svg>
