<svg width="11" height="13" viewBox="0 0 11 13" fill="none" xmlns="http://www.w3.org/2000/svg">
<path id="Vector" d="M10.0952 10.0624H9.73808V5.42608C9.73808 3.50199 8.18599 1.91199 6.16665 1.64744V1.11699C6.16665 0.815624 5.90028 0.571533 5.57141 0.571533C5.24254 0.571533 4.97617 0.815624 4.97617 1.11699V1.64744C2.95683 1.91199 1.40474 3.50199 1.40474 5.42608V10.0624H1.0476C0.784209 10.0624 0.571411 10.2574 0.571411 10.4988V10.9352C0.571411 10.9952 0.624983 11.0443 0.690459 11.0443H3.90474C3.90474 11.887 4.65177 12.5715 5.57141 12.5715C6.49105 12.5715 7.23808 11.887 7.23808 11.0443H10.4524C10.5178 11.0443 10.5714 10.9952 10.5714 10.9352V10.4988C10.5714 10.2574 10.3586 10.0624 10.0952 10.0624ZM5.57141 11.6988C5.17707 11.6988 4.85713 11.4056 4.85713 11.0443H6.2857C6.2857 11.4056 5.96576 11.6988 5.57141 11.6988ZM2.47617 10.0624V5.42608C2.47617 4.6679 2.7976 3.95608 3.38242 3.42017C3.96724 2.88426 4.74403 2.58972 5.57141 2.58972C6.39879 2.58972 7.17558 2.88426 7.7604 3.42017C8.34522 3.95608 8.66665 4.6679 8.66665 5.42608V10.0624H2.47617Z" fill="#D2D2D2"/>
</svg>
