<svg width="16" height="15" viewBox="0 0 16 15" fill="none" xmlns="http://www.w3.org/2000/svg">
<path id="Vector" d="M13.5856 4.84757C13.3952 4.40662 13.1206 4.00704 12.7772 3.67118C12.4336 3.33433 12.0284 3.06664 11.5838 2.88266C11.1227 2.69113 10.6282 2.5931 10.1289 2.59425C9.4285 2.59425 8.74512 2.78605 8.15124 3.14834C8.00916 3.23501 7.87419 3.3302 7.74632 3.43392C7.61845 3.3302 7.48348 3.23501 7.34141 3.14834C6.74753 2.78605 6.06414 2.59425 5.36371 2.59425C4.85934 2.59425 4.3706 2.69086 3.90885 2.88266C3.46273 3.06736 3.06066 3.33304 2.71541 3.67118C2.37159 4.00666 2.09693 4.40634 1.907 4.84757C1.70952 5.30648 1.60864 5.7938 1.60864 6.29533C1.60864 6.76844 1.70525 7.26145 1.89706 7.76297C2.0576 8.1821 2.28777 8.61685 2.58186 9.05586C3.04787 9.75062 3.68863 10.4752 4.48426 11.2097C5.80272 12.4273 7.1084 13.2684 7.16381 13.3025L7.50053 13.5185C7.64971 13.6137 7.84151 13.6137 7.99069 13.5185L8.32741 13.3025C8.38282 13.267 9.68708 12.4273 11.007 11.2097C11.8026 10.4752 12.4434 9.75062 12.9094 9.05586C13.2035 8.61685 13.435 8.1821 13.5942 7.76297C13.786 7.26145 13.8826 6.76844 13.8826 6.29533C13.884 5.7938 13.7831 5.30648 13.5856 4.84757ZM7.74632 12.3947C7.74632 12.3947 2.68842 9.1539 2.68842 6.29533C2.68842 4.84757 3.88612 3.67403 5.36371 3.67403C6.40228 3.67403 7.30304 4.2537 7.74632 5.10047C8.1896 4.2537 9.09036 3.67403 10.1289 3.67403C11.6065 3.67403 12.8042 4.84757 12.8042 6.29533C12.8042 9.1539 7.74632 12.3947 7.74632 12.3947Z" fill="#D2D2D2"/>
</svg>
