<svg width="18" height="20" viewBox="0 0 18 20" fill="none" xmlns="http://www.w3.org/2000/svg">
<path d="M16.2963 15.3788H15.6852V7.86616C15.6852 4.74842 13.0294 2.17203 9.57407 1.74337V0.883838C9.57407 0.395518 9.11829 0 8.55556 0C7.99282 0 7.53704 0.395518 7.53704 0.883838V1.74337C4.08171 2.17203 1.42593 4.74842 1.42593 7.86616V15.3788H0.814815C0.36412 15.3788 0 15.6948 0 16.0859V16.7929C0 16.8902 0.0916667 16.9697 0.203704 16.9697H5.7037C5.7037 18.3352 6.98194 19.4444 8.55556 19.4444C10.1292 19.4444 11.4074 18.3352 11.4074 16.9697H16.9074C17.0194 16.9697 17.1111 16.8902 17.1111 16.7929V16.0859C17.1111 15.6948 16.747 15.3788 16.2963 15.3788ZM8.55556 18.0303C7.88079 18.0303 7.33333 17.5552 7.33333 16.9697H9.77778C9.77778 17.5552 9.23032 18.0303 8.55556 18.0303ZM3.25926 15.3788V7.86616C3.25926 6.63763 3.80926 5.48422 4.80995 4.61585C5.81065 3.74747 7.13981 3.2702 8.55556 3.2702C9.9713 3.2702 11.3005 3.74747 12.3012 4.61585C13.3019 5.48422 13.8519 6.63763 13.8519 7.86616V15.3788H3.25926Z" fill="black"/>
</svg>
