<svg width="12" height="15" viewBox="0 0 12 15" fill="none" xmlns="http://www.w3.org/2000/svg">
<g id="Component 67">
<path id="Vector" d="M10.9091 5.89286C10.9091 4.61413 10.3919 3.38779 9.47125 2.48359C8.55062 1.5794 7.30197 1.07143 6 1.07143C4.69803 1.07143 3.44938 1.5794 2.52875 2.48359C1.60812 3.38779 1.09091 4.61413 1.09091 5.89286C1.09091 7.87071 2.70218 10.4486 6 13.5364C9.29782 10.4486 10.9091 7.87071 10.9091 5.89286ZM6 15C1.99964 11.4289 0 8.3925 0 5.89286C0 4.32997 0.632141 2.8311 1.75736 1.72598C2.88258 0.620853 4.4087 0 6 0C7.5913 0 9.11742 0.620853 10.2426 1.72598C11.3679 2.8311 12 4.32997 12 5.89286C12 8.3925 10.0004 11.4289 6 15Z" fill="white"/>
<path id="Vector_2" d="M6 7.8C6.47739 7.8 6.93523 7.61036 7.27279 7.27279C7.61036 6.93523 7.8 6.47739 7.8 6C7.8 5.52261 7.61036 5.06477 7.27279 4.72721C6.93523 4.38964 6.47739 4.2 6 4.2C5.52261 4.2 5.06477 4.38964 4.72721 4.72721C4.38964 5.06477 4.2 5.52261 4.2 6C4.2 6.47739 4.38964 6.93523 4.72721 7.27279C5.06477 7.61036 5.52261 7.8 6 7.8ZM6 9C5.20435 9 4.44129 8.68393 3.87868 8.12132C3.31607 7.55871 3 6.79565 3 6C3 5.20435 3.31607 4.44129 3.87868 3.87868C4.44129 3.31607 5.20435 3 6 3C6.79565 3 7.55871 3.31607 8.12132 3.87868C8.68393 4.44129 9 5.20435 9 6C9 6.79565 8.68393 7.55871 8.12132 8.12132C7.55871 8.68393 6.79565 9 6 9Z" fill="white"/>
</g>
</svg>
