<svg width="24" height="24" viewBox="0 0 24 24" fill="none" xmlns="http://www.w3.org/2000/svg">
<path fill-rule="evenodd" clip-rule="evenodd" d="M17 11C17 14.3137 14.3137 17 11 17C7.68629 17 5 14.3137 5 11C5 7.68629 7.68629 5 11 5C14.3137 5 17 7.68629 17 11ZM16.107 17.1581C14.7215 18.3084 12.9415 19 11 19C6.58172 19 3 15.4183 3 11C3 6.58172 6.58172 3 11 3C15.4183 3 19 6.58172 19 11C19 12.7556 18.4345 14.3791 17.4757 15.6983L21.0649 19.2875C21.4554 19.678 21.4554 20.3112 21.0649 20.7017C20.6744 21.0923 20.0412 21.0923 19.6507 20.7017L16.107 17.1581Z" fill="black"/>
</svg>
