<svg width="19" height="20" viewBox="0 0 19 20" fill="none" xmlns="http://www.w3.org/2000/svg">
<path d="M11.3407 0.388672C11.4855 0.388676 11.6266 0.433477 11.7436 0.516622C11.8607 0.599767 11.9476 0.716965 11.9919 0.851339L12.7444 3.13001C13.0605 3.28067 13.3628 3.45001 13.6515 3.64067L16.054 3.13667C16.1956 3.1072 16.3432 3.1223 16.4755 3.17981C16.6078 3.23732 16.7179 3.33426 16.79 3.45667L18.6863 6.65534C18.7587 6.77768 18.7894 6.91927 18.7739 7.0597C18.7584 7.20012 18.6975 7.33213 18.6001 7.43667L16.9515 9.21001C16.9755 9.55005 16.9755 9.8913 16.9515 10.2313L18.6001 12.0073C18.6975 12.1119 18.7584 12.2439 18.7739 12.3843C18.7894 12.5247 18.7587 12.6663 18.6863 12.7887L16.79 15.9887C16.7177 16.1108 16.6075 16.2075 16.4752 16.2648C16.343 16.322 16.1955 16.3369 16.054 16.3073L13.6515 15.8033C13.3642 15.9927 13.0605 16.1633 12.7458 16.314L11.9919 18.5927C11.9476 18.727 11.8607 18.8442 11.7436 18.9274C11.6266 19.0105 11.4855 19.0553 11.3407 19.0553H7.5482C7.40337 19.0553 7.26228 19.0105 7.14524 18.9274C7.02821 18.8442 6.94128 18.727 6.89696 18.5927L6.14585 16.3153C5.83065 16.1651 5.52664 15.9936 5.23603 15.802L2.83494 16.3073C2.69328 16.3368 2.54569 16.3217 2.41341 16.2642C2.28113 16.2067 2.171 16.1097 2.09887 15.9873L0.202624 12.7887C0.130214 12.6663 0.0995435 12.5247 0.115035 12.3843C0.130526 12.2439 0.191378 12.1119 0.288817 12.0073L1.93743 10.2313C1.91355 9.89218 1.91355 9.55183 1.93743 9.21267L0.288817 7.43667C0.191378 7.33213 0.130526 7.20012 0.115035 7.0597C0.0995435 6.91927 0.130214 6.77768 0.202624 6.65534L2.09887 3.45534C2.1712 3.33317 2.28142 3.2365 2.41368 3.17924C2.54594 3.12198 2.69343 3.10708 2.83494 3.13667L5.23603 3.64201C5.52608 3.45134 5.82981 3.27934 6.14585 3.12867L6.89833 0.851339C6.9425 0.717398 7.02902 0.60051 7.14551 0.517405C7.26199 0.4343 7.40247 0.389239 7.54683 0.388672H11.3393H11.3407ZM10.84 1.72201H8.04894L7.27183 4.07801L6.74783 4.32734C6.49023 4.45019 6.24156 4.59007 6.00356 4.74601L5.51924 5.06601L3.03468 4.54334L1.63918 6.90067L3.34252 8.73801L3.30147 9.30334C3.28182 9.58212 3.28182 9.86189 3.30147 10.1407L3.34252 10.706L1.63644 12.5433L3.03332 14.9007L5.51787 14.3793L6.00219 14.698C6.2402 14.8539 6.48887 14.9938 6.74646 15.1167L7.27046 15.366L8.04894 17.722H10.8427L11.6225 15.3647L12.1452 15.1167C12.4025 14.9941 12.6507 14.8542 12.8881 14.698L13.371 14.3793L15.8569 14.9007L17.2525 12.5433L15.5477 10.706L15.5888 10.1407C15.6085 9.86145 15.6085 9.58123 15.5888 9.302L15.5477 8.73667L17.2538 6.90067L15.8569 4.54334L13.371 5.06334L12.8881 4.74601C12.6507 4.58976 12.4025 4.44986 12.1452 4.32734L11.6225 4.07934L10.8413 1.72201H10.84ZM9.44445 5.72201C10.533 5.72201 11.577 6.14343 12.3467 6.89358C13.1165 7.64372 13.5489 8.66114 13.5489 9.722C13.5489 10.7829 13.1165 11.8003 12.3467 12.5504C11.577 13.3006 10.533 13.722 9.44445 13.722C8.35588 13.722 7.3119 13.3006 6.54217 12.5504C5.77244 11.8003 5.34001 10.7829 5.34001 9.722C5.34001 8.66114 5.77244 7.64372 6.54217 6.89358C7.3119 6.14343 8.35588 5.72201 9.44445 5.72201ZM9.44445 7.05534C8.71874 7.05534 8.02275 7.33629 7.5096 7.83639C6.99644 8.33648 6.70816 9.01476 6.70816 9.722C6.70816 10.4292 6.99644 11.1075 7.5096 11.6076C8.02275 12.1077 8.71874 12.3887 9.44445 12.3887C10.1702 12.3887 10.8661 12.1077 11.3793 11.6076C11.8925 11.1075 12.1807 10.4292 12.1807 9.722C12.1807 9.01476 11.8925 8.33648 11.3793 7.83639C10.8661 7.33629 10.1702 7.05534 9.44445 7.05534Z" fill="black"/>
</svg>
